<svg
  version="1.1"
  id="Layer_1"
  xmlns="http://www.w3.org/2000/svg"
  xmlns:xlink="http://www.w3.org/1999/xlink"
  x="0px"
  y="0px"
  width="1024px"
  height="1024px"
  viewBox="0 0 1024 1024"
  enable-background="new 0 0 1024 1024"
  xml:space="preserve"
>
  <g>
    <path
      fill="#1E40AF"
      d="M1024,950c0,41.421-33.579,75-75,75H75c-41.421,0-75-33.579-75-75V76C0,34.579,33.579,1,75,1h874
		c41.421,0,75,33.579,75,75V950z"
    />
  </g>
  <g id="Sun">
    <line
      fill="none"
      stroke="#FFFFFF"
      stroke-width="50"
      stroke-miterlimit="10"
      x1="364.764"
      y1="405.969"
      x2="455.595"
      y2="120.987"
    />

    <line
      fill="none"
      stroke="#FFFFFF"
      stroke-width="50"
      stroke-miterlimit="10"
      x1="273.932"
      y1="690.951"
      x2="364.764"
      y2="405.969"
    />

    <line
      fill="none"
      stroke="#FFFFFF"
      stroke-width="50"
      stroke-miterlimit="10"
      x1="646.109"
      y1="495.866"
      x2="361.004"
      y2="405.421"
    />
    <line
      fill="none"
      stroke="#FFFFFF"
      stroke-width="50"
      stroke-miterlimit="10"
      x1="361.127"
      y1="405.034"
      x2="76.021"
      y2="314.59"
    />

    <line
      fill="none"
      stroke="#FFFFFF"
      stroke-width="50"
      stroke-miterlimit="10"
      x1="365.026"
      y1="405.644"
      x2="630.651"
      y2="268.135"
    />
    <line
      fill="none"
      stroke="#FFFFFF"
      stroke-width="50"
      stroke-miterlimit="10"
      x1="99.13"
      y1="543.01"
      x2="364.755"
      y2="405.5"
    />

    <line
      fill="none"
      stroke="#FFFFFF"
      stroke-width="50"
      stroke-miterlimit="10"
      x1="361.761"
      y1="403.099"
      x2="221.129"
      y2="139.114"
    />

    <line
      fill="none"
      stroke="#FFFFFF"
      stroke-width="50"
      stroke-miterlimit="10"
      x1="506.236"
      y1="668.637"
      x2="365.604"
      y2="404.653"
    />
    <circle
      fill="#FFFFFD"
      stroke="#FFFFFF"
      stroke-width="50"
      stroke-miterlimit="10"
      cx="364.546"
      cy="404.922"
      r="166.99"
    />
  </g>
  <line
    fill="none"
    stroke="#FFFFFF"
    stroke-width="50"
    stroke-miterlimit="10"
    x1="274.959"
    y1="736.733"
    x2="219.273"
    y2="819.853"
  />
  <line
    fill="none"
    stroke="#FFFFFF"
    stroke-width="50"
    stroke-miterlimit="10"
    x1="383.292"
    y1="736.733"
    x2="282.046"
    y2="885.06"
  />
  <line
    fill="none"
    stroke="#FFFFFF"
    stroke-width="50"
    stroke-miterlimit="10"
    x1="492.622"
    y1="736.733"
    x2="436.936"
    y2="819.853"
  />
  <line
    fill="none"
    stroke="#FFFFFF"
    stroke-width="50"
    stroke-miterlimit="10"
    x1="600.955"
    y1="736.733"
    x2="499.709"
    y2="885.06"
  />
  <line
    fill="none"
    stroke="#FFFFFF"
    stroke-width="50"
    stroke-miterlimit="10"
    x1="696.508"
    y1="736.733"
    x2="640.823"
    y2="819.853"
  />
  <line
    fill="none"
    stroke="#FFFFFF"
    stroke-width="50"
    stroke-miterlimit="10"
    x1="804.842"
    y1="736.733"
    x2="703.596"
    y2="885.06"
  />
  <g>
    <path
      fill="#FFFFFF"
      stroke="#FFFFFF"
      stroke-width="18"
      stroke-miterlimit="10"
      d="M269.148,528.245
		c-62.37,0-113.114,51.061-113.114,113.829c0,60.251,47.618,104.612,113.246,105.433h524.147
		c77.387-0.821,138.062-59.775,138.062-134.168c0-76.142-61.92-138.088-138.062-138.088c-16.844,0-37.581,3.046-50.452,7.416
		c-4.847,1.668-10.064-0.821-11.944-5.562c-31.251-80.3-107.287-134.274-189.202-134.274c-101.408,0-192.089,86.577-202.18,192.99
		c-0.318,3.231-2.225,6.065-5.085,7.574c-2.887,1.51-6.33,1.404-9.111-0.185C308.265,533.435,288.8,528.245,269.148,528.245z"
    />
    <rect
      id="_Transparent_Rectangle_1_"
      x="312.37"
      y="275.786"
      fill="none"
      width="492.173"
      height="492.173"
    />
  </g>
</svg>
